<?xml version="1.0" encoding="UTF-8"?>
<svg version="1.1" xmlns="http://www.w3.org/2000/svg" width="96" height="96">
<path d="M0 0 C7.35060015 -0.0759439 14.70109947 -0.12855502 22.05200195 -0.16479492 C24.55366802 -0.17989944 27.05530753 -0.20038429 29.55688477 -0.22631836 C33.14866684 -0.26262775 36.74009941 -0.27970975 40.33203125 -0.29296875 C41.45398392 -0.30845261 42.57593658 -0.32393646 43.73188782 -0.33988953 C44.77274033 -0.34011612 45.81359283 -0.34034271 46.88598633 -0.34057617 C47.80309891 -0.34723801 48.72021149 -0.35389984 49.66511536 -0.36076355 C52 -0 52 -0 53.78764343 1.32524109 C55.69160847 3.95539339 55.52944191 6.49472662 55.6875 9.6875 C55.75324219 10.86699219 55.81898437 12.04648437 55.88671875 13.26171875 C55.94279297 14.61716797 55.94279297 14.61716797 56 16 C57.485 16.495 57.485 16.495 59 17 C59 20.63 59 24.26 59 28 C60.485 28.495 60.485 28.495 62 29 C66.87628866 33.87628866 66.87628866 33.87628866 67.328125 37.98046875 C67.30234375 39.03878906 67.2765625 40.09710938 67.25 41.1875 C67.23453125 42.25355469 67.2190625 43.31960937 67.203125 44.41796875 C67 47 67 47 66 48 C65.91503085 49.86819086 65.89181055 51.73925483 65.89453125 53.609375 C65.87970703 54.75664063 65.86488281 55.90390625 65.84960938 57.0859375 C65.82502924 59.51290195 65.81956887 61.94014139 65.83398438 64.3671875 C65.67305919 73.08640649 65.67305919 73.08640649 63.64599609 75.83789062 C62.01171875 77.140625 62.01171875 77.140625 59 79 C58.505 80.485 58.505 80.485 58 82 C57.29644882 81.83381165 56.59289764 81.66762329 55.86802673 81.49639893 C52.85016515 80.97406654 50.17064673 80.95233881 47.11157227 81.05761719 C45.36935143 81.1119693 45.36935143 81.1119693 43.5919342 81.16741943 C42.34600998 81.21013977 41.10008575 81.25286011 39.81640625 81.296875 C37.84803162 81.35106972 35.87965558 81.40523361 33.91123104 81.45758438 C29.06870871 81.58669714 24.22674691 81.72426362 19.38549805 81.89501953 C16.66490947 81.99035758 13.94457666 82.0720294 11.22312927 82.13848877 C8.66383903 82.20130374 6.10493964 82.28386725 3.54701233 82.3883667 C-6.08296099 82.58372331 -6.08296099 82.58372331 -9.76977539 79.61035156 C-13.00303618 75.82600297 -13.14617443 73.91584312 -13.28125 69.00390625 C-13.31863281 67.80572266 -13.35601562 66.60753906 -13.39453125 65.37304688 C-13.42933594 64.11556641 -13.46414063 62.85808594 -13.5 61.5625 C-13.56879745 59.08451763 -13.64152884 56.60664042 -13.71875 54.12890625 C-13.74904297 53.02619385 -13.77933594 51.92348145 -13.81054688 50.78735352 C-13.88849488 47.91590306 -13.88849488 47.91590306 -15 45 C-15.14252401 43.35823305 -15.22026755 41.71017345 -15.25 40.0625 C-15.28867188 38.78052734 -15.28867188 38.78052734 -15.328125 37.47265625 C-14.81511951 33.60679343 -12.68102718 31.68102718 -10 29 C-9.01 28.67 -8.02 28.34 -7 28 C-7 24.37 -7 20.74 -7 17 C-6.01 16.67 -5.02 16.34 -4 16 C-3.95101563 15.07316406 -3.90203125 14.14632813 -3.8515625 13.19140625 C-3.77679688 11.99386719 -3.70203125 10.79632813 -3.625 9.5625 C-3.55539063 8.36753906 -3.48578125 7.17257812 -3.4140625 5.94140625 C-3.27742188 4.97074219 -3.14078125 4.00007812 -3 3 C-2.34 2.67 -1.68 2.34 -1 2 C-0.67 1.34 -0.34 0.68 0 0 Z M53 4 C53 7.96 53 11.92 53 16 C53.33 16 53.66 16 54 16 C54 12.04 54 8.08 54 4 C53.67 4 53.34 4 53 4 Z M-12 46 C-12 55.57 -12 65.14 -12 75 C-11.67 75 -11.34 75 -11 75 C-11 65.43 -11 55.86 -11 46 C-11.33 46 -11.66 46 -12 46 Z " fill="#ABADB4" transform="translate(22,7)"/>
<path d="M0 0 C7.35060015 -0.0759439 14.70109947 -0.12855502 22.05200195 -0.16479492 C24.55366802 -0.17989944 27.05530753 -0.20038429 29.55688477 -0.22631836 C33.14866684 -0.26262775 36.74009941 -0.27970975 40.33203125 -0.29296875 C41.45398392 -0.30845261 42.57593658 -0.32393646 43.73188782 -0.33988953 C44.77274033 -0.34011612 45.81359283 -0.34034271 46.88598633 -0.34057617 C47.80309891 -0.34723801 48.72021149 -0.35389984 49.66511536 -0.36076355 C52 0 52 0 53.78764343 1.33891296 C55.61646958 3.84464395 55.52310384 6.12973143 55.6875 9.1875 C55.75324219 10.27417969 55.81898437 11.36085938 55.88671875 12.48046875 C55.94279297 13.72763672 55.94279297 13.72763672 56 15 C55.01 15.33 54.02 15.66 53 16 C52.67 22.27 52.34 28.54 52 35 C47.38 35 42.76 35 38 35 C38 36.32 38 37.64 38 39 C30.08 39 22.16 39 14 39 C14 37.68 14 36.36 14 35 C9.05 35 4.1 35 -1 35 C-1 33.68 -1 32.36 -1 31 C-3.97 31.66 -6.94 32.32 -10 33 C-10 35.97 -10 38.94 -10 42 C-11.65 41.34 -13.3 40.68 -15 40 C-15.25181672 36.97819938 -15.26307298 35.4185252 -13.625 32.8125 C-11.37043747 30.29779564 -10.27669542 29.09223181 -7 28 C-7 24.37 -7 20.74 -7 17 C-6.01 16.67 -5.02 16.34 -4 16 C-3.95101563 15.07316406 -3.90203125 14.14632813 -3.8515625 13.19140625 C-3.77679688 11.99386719 -3.70203125 10.79632813 -3.625 9.5625 C-3.55539063 8.36753906 -3.48578125 7.17257812 -3.4140625 5.94140625 C-3.27742188 4.97074219 -3.14078125 4.00007812 -3 3 C-2.34 2.67 -1.68 2.34 -1 2 C-0.67 1.34 -0.34 0.68 0 0 Z " fill="#29CBEF" transform="translate(22,7)"/>
<path d="M0 0 C24.75 0.495 24.75 0.495 50 1 C50.495 1.99 50.495 1.99 51 3 C46.12651177 3.79348625 41.47059816 4.11813526 36.53515625 4.09765625 C35.51789711 4.09553383 35.51789711 4.09553383 34.48008728 4.09336853 C32.34084422 4.08782745 30.20171075 4.07528653 28.0625 4.0625 C26.60091298 4.05747736 25.13932431 4.0529158 23.67773438 4.04882812 C20.11845474 4.03787745 16.55923809 4.02065445 13 4 C13 4.66 13 5.32 13 6 C13.56847656 6.03738281 14.13695313 6.07476563 14.72265625 6.11328125 C20.05550951 6.56733053 24.30590434 7.35957119 29 10 C29.495 11.98 29.495 11.98 30 14 C34.29 14.33 38.58 14.66 43 15 C42 20 42 20 40 23 C37.01904297 23.34057617 37.01904297 23.34057617 33.2421875 23.29296875 C32.57913605 23.28872391 31.91608459 23.28447906 31.23294067 23.28010559 C29.11321559 23.26329971 26.99443812 23.22564701 24.875 23.1875 C23.43881581 23.17245549 22.00261672 23.15876668 20.56640625 23.14648438 C17.04396236 23.1133909 13.52207364 23.0615968 10 23 C10 23.66 10 24.32 10 25 C6.7 25 3.4 25 0 25 C0 28.3 0 31.6 0 35 C-0.33 33.68 -0.66 32.36 -1 31 C-3.97 31.66 -6.94 32.32 -10 33 C-10 35.97 -10 38.94 -10 42 C-11.65 41.34 -13.3 40.68 -15 40 C-15.25181672 36.97819938 -15.26307298 35.4185252 -13.625 32.8125 C-11.37043747 30.29779564 -10.27669542 29.09223181 -7 28 C-7 24.37 -7 20.74 -7 17 C-6.01 16.67 -5.02 16.34 -4 16 C-3.95101563 15.07316406 -3.90203125 14.14632813 -3.8515625 13.19140625 C-3.77679688 11.99386719 -3.70203125 10.79632813 -3.625 9.5625 C-3.55539063 8.36753906 -3.48578125 7.17257812 -3.4140625 5.94140625 C-3.27742188 4.97074219 -3.14078125 4.00007812 -3 3 C-2.34 2.67 -1.68 2.34 -1 2 C-0.67 1.34 -0.34 0.68 0 0 Z " fill="#69D9F3" transform="translate(22,7)"/>
<path d="M0 0 C3.0954672 3.36428409 3.35980696 5.67992437 3.25 10.1875 C3.23453125 11.25355469 3.2190625 12.31960937 3.203125 13.41796875 C3 16 3 16 2 17 C1.91503085 18.86819086 1.89181055 20.73925483 1.89453125 22.609375 C1.87970703 23.75664063 1.86488281 24.90390625 1.84960938 26.0859375 C1.82502924 28.51290195 1.81956887 30.94014139 1.83398438 33.3671875 C1.67305919 42.08640649 1.67305919 42.08640649 -0.35400391 44.83789062 C-1.98828125 46.140625 -1.98828125 46.140625 -5 48 C-5.33 48.99 -5.66 49.98 -6 51 C-6.70355118 50.83381165 -7.40710236 50.66762329 -8.13197327 50.49639893 C-11.14983485 49.97406654 -13.82935327 49.95233881 -16.88842773 50.05761719 C-18.04990829 50.09385193 -19.21138885 50.13008667 -20.4080658 50.16741943 C-21.65399002 50.21013977 -22.89991425 50.25286011 -24.18359375 50.296875 C-26.15196838 50.35106972 -28.12034442 50.40523361 -30.08876896 50.45758438 C-34.93129129 50.58669714 -39.77325309 50.72426362 -44.61450195 50.89501953 C-47.33509053 50.99035758 -50.05542334 51.0720294 -52.77687073 51.13848877 C-55.33616097 51.20130374 -57.89506036 51.28386725 -60.45298767 51.3883667 C-70.08296099 51.58372331 -70.08296099 51.58372331 -73.76977539 48.61035156 C-77.00303618 44.82600297 -77.14617443 42.91584312 -77.28125 38.00390625 C-77.31863281 36.80572266 -77.35601562 35.60753906 -77.39453125 34.37304688 C-77.42933594 33.11556641 -77.46414062 31.85808594 -77.5 30.5625 C-77.56879745 28.08451763 -77.64152884 25.60664042 -77.71875 23.12890625 C-77.74904297 22.02619385 -77.77933594 20.92348145 -77.81054688 19.78735352 C-77.88849488 16.91590306 -77.88849488 16.91590306 -79 14 C-79.03874921 12.33378384 -79.0450286 10.66605828 -79 9 C-76.525 9.99 -76.525 9.99 -74 11 C-73.97812622 12.10456543 -73.97812622 12.10456543 -73.95581055 13.23144531 C-73.88128889 16.57149004 -73.78464127 19.91053981 -73.6875 23.25 C-73.66494141 24.40886719 -73.64238281 25.56773438 -73.61914062 26.76171875 C-73.58369141 27.87675781 -73.54824219 28.99179688 -73.51171875 30.140625 C-73.48553467 31.16704102 -73.45935059 32.19345703 -73.43237305 33.25097656 C-72.92562199 36.47289461 -72.29283974 37.6962776 -70 40 C-67.19012592 40.60842189 -67.19012592 40.60842189 -63.93969727 40.51757812 C-62.69152725 40.53018677 -61.44335724 40.54279541 -60.15736389 40.55578613 C-58.79370562 40.54862573 -57.43005248 40.5404216 -56.06640625 40.53125 C-54.66779816 40.53394485 -53.26919189 40.53782721 -51.87059021 40.54284668 C-48.93918014 40.54874417 -46.00825767 40.54017288 -43.0769043 40.52148438 C-39.32275011 40.49871468 -35.569741 40.51180211 -31.81562901 40.53577423 C-28.92705189 40.55024406 -26.0387452 40.54562066 -23.15015984 40.53526306 C-21.76629437 40.5325979 -20.38240421 40.5358582 -18.99856758 40.54518127 C-17.06228238 40.55536183 -15.12591094 40.53708791 -13.18969727 40.51757812 C-11.53781151 40.51280457 -11.53781151 40.51280457 -9.85255432 40.50793457 C-6.32845087 39.8804219 -5.1452274 38.81922572 -3 36 C-2.39086594 32.81619669 -2.39086594 32.81619669 -2.4609375 29.2578125 C-2.43773438 27.94425781 -2.41453125 26.63070312 -2.390625 25.27734375 C-2.38408539 23.89323482 -2.37888888 22.50911892 -2.375 21.125 C-2.35334557 18.41883332 -2.31584335 15.71383587 -2.2734375 13.0078125 C-2.26747559 11.80785645 -2.26151367 10.60790039 -2.25537109 9.37158203 C-1.99558845 5.94175579 -1.22772103 3.20012532 0 0 Z M-76 15 C-76 24.57 -76 34.14 -76 44 C-75.67 44 -75.34 44 -75 44 C-75 34.43 -75 24.86 -75 15 C-75.33 15 -75.66 15 -76 15 Z " fill="#49484D" transform="translate(86,38)"/>
<path d="M0 0 C0.88602402 0.0199855 1.77204803 0.03997101 2.68492126 0.06056213 C3.68588333 0.08065842 4.6868454 0.1007547 5.71813965 0.12145996 C6.80666733 0.14849503 7.89519501 0.17553009 9.01670837 0.2033844 C10.12509567 0.22699539 11.23348297 0.25060638 12.37545776 0.27493286 C15.93177913 0.35179001 19.48789468 0.43571903 23.04405212 0.51979065 C25.44833877 0.57298927 27.8526356 0.62572979 30.25694275 0.67799377 C36.1652745 0.80743481 42.07345218 0.94268945 47.98155212 1.08229065 C48.47655212 2.07229065 48.47655212 2.07229065 48.98155212 3.08229065 C44.10806389 3.8757769 39.45215029 4.20042591 34.51670837 4.1799469 C33.49944923 4.17782448 33.49944923 4.17782448 32.4616394 4.17565918 C30.32239634 4.1701181 28.18326287 4.15757718 26.04405212 4.14479065 C24.58246511 4.13976801 23.12087643 4.13520645 21.6592865 4.13111877 C18.10000686 4.1201681 14.54079021 4.1029451 10.98155212 4.08229065 C10.98155212 4.74229065 10.98155212 5.40229065 10.98155212 6.08229065 C11.55002869 6.11967346 12.11850525 6.15705627 12.70420837 6.1955719 C18.06590405 6.65207687 22.14850292 7.71718147 26.98155212 10.08229065 C26.98155212 11.40229065 26.98155212 12.72229065 26.98155212 14.08229065 C21.04155212 14.41229065 15.10155212 14.74229065 8.98155212 15.08229065 C8.65155212 16.73229065 8.32155212 18.38229065 7.98155212 20.08229065 C3.03155212 20.57729065 3.03155212 20.57729065 -2.01844788 21.08229065 C-3.05810605 16.82464287 -3.16863567 12.68977858 -3.14344788 8.33229065 C-3.14731506 7.64779846 -3.15118225 6.96330627 -3.15516663 6.2580719 C-3.14302814 0.12813897 -3.14302814 0.12813897 0 0 Z " fill="#55E2EC" transform="translate(24.018447875976563,6.9177093505859375)"/>
<path d="M0 0 C2.475 0.495 2.475 0.495 5 1 C5.05789006 4.45826342 5.09355821 7.91640293 5.125 11.375 C5.14175781 12.35984375 5.15851563 13.3446875 5.17578125 14.359375 C5.18544922 15.77089844 5.18544922 15.77089844 5.1953125 17.2109375 C5.21102295 18.51490479 5.21102295 18.51490479 5.22705078 19.84521484 C5 22 5 22 3 24 C-0.0390625 24.1953125 -0.0390625 24.1953125 -3.625 24.125 C-4.81351563 24.10695313 -6.00203125 24.08890625 -7.2265625 24.0703125 C-8.14179687 24.04710938 -9.05703125 24.02390625 -10 24 C-10 24.99 -10 25.98 -10 27 C-12.81824192 28.40912096 -15.17251282 28.11183553 -18.3203125 28.09765625 C-19.57714844 28.09443359 -20.83398438 28.09121094 -22.12890625 28.08789062 C-23.44761719 28.07951172 -24.76632813 28.07113281 -26.125 28.0625 C-27.46484211 28.05748489 -28.804686 28.05292201 -30.14453125 28.04882812 C-33.42973206 28.03701086 -36.71484397 28.02053617 -40 28 C-40.66 26.68 -41.32 25.36 -42 24 C-45.96 24 -49.92 24 -54 24 C-54.33 23.34 -54.66 22.68 -55 22 C-50.38 22 -45.76 22 -41 22 C-40.67 22.99 -40.34 23.98 -40 25 C-36.04 25 -32.08 25 -28 25 C-28.99 24.34 -29.98 23.68 -31 23 C-25.39 23 -19.78 23 -14 23 C-14 21.68 -14 20.36 -14 19 C-9.38 19 -4.76 19 0 19 C0 12.73 0 6.46 0 0 Z " fill="#5A5E66" transform="translate(74,23)"/>
<path d="M0 0 C0.495 1.485 0.495 1.485 1 3 C2.65 2.67 4.3 2.34 6 2 C5.67 3.32 5.34 4.64 5 6 C7.64 6 10.28 6 13 6 C13 6.33 13 6.66 13 7 C-7.79 7 -28.58 7 -50 7 C-50 6.67 -50 6.34 -50 6 C-44.06 5.67 -38.12 5.34 -32 5 C-32.33 4.34 -32.66 3.68 -33 3 C-23.1 3 -13.2 3 -3 3 C-2.67 2.34 -2.34 1.68 -2 1 C-1.34 0.67 -0.68 0.34 0 0 Z " fill="#92939A" transform="translate(66,72)"/>
<path d="M0 0 C0.33 0 0.66 0 1 0 C1 4.29 1 8.58 1 13 C1.66 13 2.32 13 3 13 C3 19.27 3 25.54 3 32 C2.67 30.68 2.34 29.36 2 28 C-0.97 28.66 -3.94 29.32 -7 30 C-7 32.97 -7 35.94 -7 39 C-8.65 38.34 -10.3 37.68 -12 37 C-12.25181672 33.97819938 -12.26307298 32.4185252 -10.625 29.8125 C-8.37043747 27.29779564 -7.27669542 26.09223181 -4 25 C-4 21.37 -4 17.74 -4 14 C-3.01 13.67 -2.02 13.34 -1 13 C-0.67 8.71 -0.34 4.42 0 0 Z " fill="#698FC8" transform="translate(19,10)"/>
<path d="M0 0 C11.385 1.485 11.385 1.485 23 3 C23.33 3.99 23.66 4.98 24 6 C17.565 6.495 17.565 6.495 11 7 C10.67 8.65 10.34 10.3 10 12 C6.7 12.33 3.4 12.66 0 13 C0 8.71 0 4.42 0 0 Z " fill="#87E7F7" transform="translate(22,15)"/>
<path d="M0 0 C10.23 0 20.46 0 31 0 C31 1.32 31 2.64 31 4 C20.44 4 9.88 4 -1 4 C-0.67 2.68 -0.34 1.36 0 0 Z " fill="#559ED4" transform="translate(34,22)"/>
<path d="M0 0 C1.32 0 2.64 0 4 0 C4 1.32 4 2.64 4 4 C8.95 4 13.9 4 19 4 C19 5.32 19 6.64 19 8 C20.546875 7.938125 20.546875 7.938125 22.125 7.875 C25.86829627 7.99575149 28.53734547 8.64872018 32 10 C32 10.33 32 10.66 32 11 C27.05 11 22.1 11 17 11 C16.67 9.68 16.34 8.36 16 7 C14.39318359 7.12568359 14.39318359 7.12568359 12.75390625 7.25390625 C11.35679134 7.35704896 9.95965476 7.45989843 8.5625 7.5625 C7.50192383 7.64661133 7.50192383 7.64661133 6.41992188 7.73242188 C4.61572163 7.86190993 2.80768048 7.93521608 1 8 C0 7 0 7 -0.0625 3.4375 C-0.041875 2.303125 -0.02125 1.16875 0 0 Z " fill="#A4A4A8" transform="translate(17,38)"/>
<path d="M0 0 C8.58 0 17.16 0 26 0 C26 1.32 26 2.64 26 4 C17.42 4 8.84 4 0 4 C0 2.68 0 1.36 0 0 Z " fill="#3186C6" transform="translate(33,30)"/>
<path d="M0 0 C2.12438339 -0.08078641 4.2496323 -0.13909141 6.375 -0.1875 C7.55835938 -0.22230469 8.74171875 -0.25710937 9.9609375 -0.29296875 C11.46527344 -0.14794922 11.46527344 -0.14794922 13 0 C13.66 0.99 14.32 1.98 15 3 C16.92441415 3.50531866 16.92441415 3.50531866 19.1328125 3.51171875 C19.93847656 3.54716797 20.74414062 3.58261719 21.57421875 3.61914062 C22.41597656 3.64169922 23.25773437 3.66425781 24.125 3.6875 C25.39923828 3.73874023 25.39923828 3.73874023 26.69921875 3.79101562 C28.79901105 3.87359173 30.89948564 3.93846978 33 4 C33 4.33 33 4.66 33 5 C30.03 5 27.06 5 24 5 C23.77390663 7.12364481 23.77390663 7.12364481 25.5 8.625 C25.995 9.07875 26.49 9.5325 27 10 C23.86567988 11.00746004 22.13816549 10.78454137 19 10 C16.81296615 10.37907282 16.81296615 10.37907282 15 11 C13 8 13 8 13 4 C12.67 3.01 12.34 2.02 12 1 C8.04 1 4.08 1 0 1 C0 0.67 0 0.34 0 0 Z " fill="#C5C7CB" transform="translate(19,47)"/>
<path d="M0 0 C0.80566406 0.00322266 1.61132812 0.00644531 2.44140625 0.00976562 C3.70404297 0.02233398 3.70404297 0.02233398 4.9921875 0.03515625 C6.26642578 0.04192383 6.26642578 0.04192383 7.56640625 0.04882812 C9.66669659 0.06062751 11.7669508 0.07856319 13.8671875 0.09765625 C13.2071875 1.41765625 12.5471875 2.73765625 11.8671875 4.09765625 C2.2971875 4.09765625 -7.2728125 4.09765625 -17.1328125 4.09765625 C-17.1328125 3.76765625 -17.1328125 3.43765625 -17.1328125 3.09765625 C-16.36195312 2.96488281 -15.59109375 2.83210938 -14.796875 2.6953125 C-13.79398438 2.51871094 -12.79109375 2.34210937 -11.7578125 2.16015625 C-10.76007812 1.98613281 -9.76234375 1.81210937 -8.734375 1.6328125 C-0.77038705 -0.00542526 -0.77038705 -0.00542526 0 0 Z " fill="#54D5F3" transform="translate(50.1328125,25.90234375)"/>
<path d="M0 0 C9.57 0 19.14 0 29 0 C29 0.99 29 1.98 29 3 C19.43 3 9.86 3 0 3 C0 2.01 0 1.02 0 0 Z " fill="#EBEBED" transform="translate(33,72)"/>
<path d="M0 0 C3.0954672 3.36428409 3.35980696 5.67992437 3.25 10.1875 C3.23453125 11.25355469 3.2190625 12.31960937 3.203125 13.41796875 C3 16 3 16 2 17 C1.84193469 18.92478813 1.748865 20.8549921 1.68359375 22.78515625 C1.64169922 23.95498047 1.59980469 25.12480469 1.55664062 26.33007812 C1.49766602 28.17762695 1.49766602 28.17762695 1.4375 30.0625 C1.39431641 31.29806641 1.35113281 32.53363281 1.30664062 33.80664062 C1.20015802 36.87097335 1.09814576 39.93539073 1 43 C0.67 43 0.34 43 0 43 C-0.03758423 41.73555054 -0.03758423 41.73555054 -0.07592773 40.44555664 C-0.17088155 37.32758326 -0.27012448 34.20978497 -0.37231445 31.09204102 C-0.41571223 29.74085853 -0.4573837 28.38961947 -0.49731445 27.03833008 C-0.55489952 25.09963299 -0.61914298 23.16113724 -0.68359375 21.22265625 C-0.72025146 20.05484619 -0.75690918 18.88703613 -0.79467773 17.68383789 C-0.70076188 15.08220205 -0.70076188 15.08220205 -2 14 C-2.26582874 8.7720347 -1.97153141 4.92882852 0 0 Z " fill="#374A6B" transform="translate(86,38)"/>
<path d="M0 0 C0.33 0 0.66 0 1 0 C1 4.29 1 8.58 1 13 C1.66 13 2.32 13 3 13 C3 17.62 3 22.24 3 27 C1.35 27 -0.3 27 -2 27 C-2.02701408 24.89590361 -2.04640223 22.79170822 -2.0625 20.6875 C-2.07410156 19.51574219 -2.08570312 18.34398437 -2.09765625 17.13671875 C-2 14 -2 14 -1 11 C-0.77820215 9.10787263 -0.59385985 7.21115528 -0.4375 5.3125 C-0.35371094 4.31863281 -0.26992188 3.32476562 -0.18359375 2.30078125 C-0.12300781 1.54152344 -0.06242187 0.78226563 0 0 Z " fill="#4592D9" transform="translate(19,10)"/>
<path d="M0 0 C2.475 0.495 2.475 0.495 5 1 C5 5.29 5 9.58 5 14 C3.35 14 1.7 14 0 14 C0 9.38 0 4.76 0 0 Z " fill="#185BB9" transform="translate(74,23)"/>
<path d="M0 0 C2.86724686 0.57344937 3.8614515 0.8614515 6 3 C6.4140625 5.8203125 6.4140625 5.8203125 6.625 9.125 C6.69976562 10.22070312 6.77453125 11.31640625 6.8515625 12.4453125 C6.92503906 13.70988281 6.92503906 13.70988281 7 15 C5.35 15.33 3.7 15.66 2 16 C1.67 12.37 1.34 8.74 1 5 C-1.97 4.505 -1.97 4.505 -5 4 C-5 3.67 -5 3.34 -5 3 C-2.69 3 -0.38 3 2 3 C2 2.34 2 1.68 2 1 C1.34 0.67 0.68 0.34 0 0 Z " fill="#31DFF2" transform="translate(71,7)"/>
<path d="M0 0 C4.95 0 9.9 0 15 0 C15 1.32 15 2.64 15 4 C16.546875 3.938125 16.546875 3.938125 18.125 3.875 C21.86829627 3.99575149 24.53734547 4.64872018 28 6 C28 6.33 28 6.66 28 7 C23.05 7 18.1 7 13 7 C13.33 5.02 13.66 3.04 14 1 C9.38 1 4.76 1 0 1 C0 0.67 0 0.34 0 0 Z " fill="#959FAA" transform="translate(21,42)"/>
<path d="M0 0 C0.33 0.66 0.66 1.32 1 2 C4.45866792 1.86149295 7.91683275 1.71295273 11.375 1.5625 C12.85226563 1.50352539 12.85226563 1.50352539 14.359375 1.44335938 C15.77089844 1.38051758 15.77089844 1.38051758 17.2109375 1.31640625 C18.08024902 1.27974854 18.94956055 1.24309082 19.84521484 1.20532227 C22.0483262 1.12598456 22.0483262 1.12598456 24 0 C24 1.32 24 2.64 24 4 C16.08 4 8.16 4 0 4 C0 2.68 0 1.36 0 0 Z " fill="#18ABE2" transform="translate(36,42)"/>
<path d="M0 0 C1.65 0 3.3 0 5 0 C5 2.64 5 5.28 5 8 C3.22950311 8.05410687 1.45853151 8.09284119 -0.3125 8.125 C-1.79169922 8.15980469 -1.79169922 8.15980469 -3.30078125 8.1953125 C-6 8 -6 8 -9 6 C-6.03 6 -3.06 6 0 6 C0 4.02 0 2.04 0 0 Z " fill="#74767F" transform="translate(74,37)"/>
<path d="M0 0 C8.27015524 -0.2144997 15.96235969 -0.07422976 24 2 C24.33 3.32 24.66 4.64 25 6 C24.34 6 23.68 6 23 6 C22.67 5.34 22.34 4.68 22 4 C19.77526337 3.43616042 19.77526337 3.43616042 17.08984375 3.1484375 C15.60581055 2.95507812 15.60581055 2.95507812 14.09179688 2.7578125 C13.05087891 2.63148437 12.00996094 2.50515625 10.9375 2.375 C9.89271484 2.2409375 8.84792969 2.106875 7.77148438 1.96875 C5.18191139 1.63766304 2.5915538 1.31514204 0 1 C0 0.67 0 0.34 0 0 Z " fill="#68E8F7" transform="translate(23,15)"/>
<path d="M0 0 C2.01822917 0.06510417 4.03645833 0.13020833 6.0546875 0.1953125 C5.3946875 1.5153125 4.7346875 2.8353125 4.0546875 4.1953125 C-1.2253125 4.1953125 -6.5053125 4.1953125 -11.9453125 4.1953125 C-11.9453125 3.8653125 -11.9453125 3.5353125 -11.9453125 3.1953125 C-10.6665625 3.0715625 -9.3878125 2.9478125 -8.0703125 2.8203125 C-4.56915336 2.48149065 -3.1324247 0.31450047 0 0 Z " fill="#41CFF1" transform="translate(57.9453125,25.8046875)"/>
<path d="M0 0 C3.96 0 7.92 0 12 0 C12 0.66 12 1.32 12 2 C13.32 2.33 14.64 2.66 16 3 C10.72 3 5.44 3 0 3 C0 2.01 0 1.02 0 0 Z " fill="#48EBF7" transform="translate(23,11)"/>
<path d="M0 0 C0.33 0 0.66 0 1 0 C1 9.24 1 18.48 1 28 C0.34 28 -0.32 28 -1 28 C-1.33 27.34 -1.66 26.68 -2 26 C-2.66 25.67 -3.32 25.34 -4 25 C-3.5155542 24.61030029 -3.0311084 24.22060059 -2.53198242 23.8190918 C-0.52326272 21.43391721 -0.57763018 19.98600407 -0.48828125 16.89453125 C-0.45283203 15.91162109 -0.41738281 14.92871094 -0.38085938 13.91601562 C-0.35830078 12.89185547 -0.33574219 11.86769531 -0.3125 10.8125 C-0.27833984 9.77673828 -0.24417969 8.74097656 -0.20898438 7.67382812 C-0.12647358 5.1159934 -0.05733428 2.55850277 0 0 Z " fill="#646365" transform="translate(84,52)"/>
<path d="M0 0 C0.99 0 1.98 0 3 0 C3 3.63 3 7.26 3 11 C0.525 10.01 0.525 10.01 -2 9 C-2.20140476 5.37471432 -1.85776765 3.13498292 0 0 Z " fill="#4C77B6" transform="translate(9,38)"/>
<path d="M0 0 C2.08268593 -0.08126087 4.16628658 -0.13930839 6.25 -0.1875 C7.99023438 -0.23970703 7.99023438 -0.23970703 9.765625 -0.29296875 C13.22268407 0.02017066 14.51565563 0.65709108 17 3 C5.47835991 3.3690205 5.47835991 3.3690205 0 1 C0 0.67 0 0.34 0 0 Z " fill="#8B8E97" transform="translate(43,46)"/>
<path d="M0 0 C2.35448165 2.55068845 2.98327924 3.71017358 3.1875 7.25 C3.125625 8.1575 3.06375 9.065 3 10 C1.35 10 -0.3 10 -2 10 C-1.33333333 6.66666667 -0.66666667 3.33333333 0 0 Z " fill="#3865AD" transform="translate(86,38)"/>
<path d="M0 0 C4.29 0 8.58 0 13 0 C12.67 1.65 12.34 3.3 12 5 C11.67 4.01 11.34 3.02 11 2 C7.7 2 4.4 2 1 2 C0.67 1.34 0.34 0.68 0 0 Z " fill="#ADACB0" transform="translate(22,43)"/>
<path d="M0 0 C2.475 0.99 2.475 0.99 5 2 C4.67 3.32 4.34 4.64 4 6 C3.34 6 2.68 6 2 6 C1.67 6.66 1.34 7.32 1 8 C0.02391783 5.07175348 -0.08226668 3.04386724 0 0 Z " fill="#0F1F54" transform="translate(7,47)"/>
<path d="M0 0 C1.65 0 3.3 0 5 0 C5 2.64 5 5.28 5 8 C4.34 7.67 3.68 7.34 3 7 C3 5.68 3 4.36 3 3 C2.01 3 1.02 3 0 3 C0 2.01 0 1.02 0 0 Z " fill="#5D687A" transform="translate(74,37)"/>
<path d="M0 0 C0.33 0 0.66 0 1 0 C1 2.64 1 5.28 1 8 C0.67 8 0.34 8 0 8 C0 5.36 0 2.72 0 0 Z " fill="#072D73" transform="translate(5,44)"/>
<path d="M0 0 C0.33 0 0.66 0 1 0 C1 2.64 1 5.28 1 8 C0.67 8 0.34 8 0 8 C0 5.36 0 2.72 0 0 Z " fill="#182F9C" transform="translate(90,44)"/>
<path d="M0 0 C0 0.99 0 1.98 0 3 C-0.66 2.67 -1.32 2.34 -2 2 C-1.34 1.34 -0.68 0.68 0 0 Z " fill="#4C4C4C" transform="translate(84,83)"/>
<path d="" fill="#3F3F3F" transform="translate(0,0)"/>
<path d="" fill="#555555" transform="translate(0,0)"/>
<path d="" fill="#000000" transform="translate(0,0)"/>
<path d="" fill="#000000" transform="translate(0,0)"/>
<path d="" fill="#0000FF" transform="translate(0,0)"/>
<path d="" fill="#007F7F" transform="translate(0,0)"/>
<path d="" fill="#000000" transform="translate(0,0)"/>
<path d="" fill="#FFFFFF" transform="translate(0,0)"/>
<path d="" fill="#000000" transform="translate(0,0)"/>
<path d="" fill="#FFFFFF" transform="translate(0,0)"/>
<path d="" fill="#0000FF" transform="translate(0,0)"/>
<path d="" fill="#0000FF" transform="translate(0,0)"/>
<path d="" fill="#007F7F" transform="translate(0,0)"/>
</svg>
